<?xml version="1.0" encoding="utf-8"?>
<!-- Generator: Adobe Illustrator 21.0.2, SVG Export Plug-In . SVG Version: 6.00 Build 0)  -->
<svg version="1.1" id="Layer_1" xmlns="http://www.w3.org/2000/svg" xmlns:xlink="http://www.w3.org/1999/xlink" x="0px" y="0px"
	 viewBox="0 0 700 700" style="enable-background:new 0 0 700 700;" xml:space="preserve">
<style type="text/css">
	.st0{fill:#407CCA;}
</style>
<g id="Layer_1_1_">
	<path class="st0" d="M137.9,283.9l145.7,149.5v203.1h-1.4l0,0H162.9v-86.9l-121.7-161c-5.3-6.3-8.2-14.2-8.2-22.4V119.4
		c0-19.2,15.6-34.8,34.8-34.8s34.8,15.6,34.8,34.8v142.4c-8.6,1.7-16.6,5.8-23,11.8c-18.6,18.2-19,48.1-0.9,66.8l66.6,68.3l9-8.9
		l-66.2-67.6c-13.6-13.6-13.6-35.6,0-49.2c0,0,0,0,0,0c4.2-4,9.2-6.8,14.8-8.3c5.7-1.4,11.7-1.4,17.4,0c6.6,1.5,12.7,4.9,17.4,9.7
		 M562,284.4L416.2,433.9v202.6h1.2l0,0h119.5v-86.9l121.7-161c5.3-6.3,8.3-14.2,8.3-22.4V119.4c0-19.2-15.6-34.8-34.8-34.8
		s-34.8,15.6-34.8,34.8v142.4c8.7,1.7,16.7,5.8,23.1,11.8c18.6,18.2,19,48.1,0.9,66.8l-66.6,68.3l-9.7-7.8l67.5-68.7
		c13.6-13.6,13.6-35.6,0-49.2c0,0,0,0,0,0c-4.2-4-9.2-6.8-14.8-8.3c-5.7-1.4-11.7-1.4-17.4,0c-6.6,1.5-12.7,4.9-17.4,9.7 M350.9,340
		c75.9-0.7,137.3-62.1,137.9-138.1c0.5-37.1-14.5-72.7-41.4-98.2c-25.5-26.3-60.8-40.8-97.4-40.2c-36.6-0.7-71.9,13.8-97.4,40.2
		c-26.3,25.6-40.8,60.9-40,97.5c-0.7,36.7,14,72.1,40.5,97.5c25.5,26.4,60.7,41,97.4,40.5"/>
</g>
</svg>
