<svg id="Layer_1" data-name="Layer 1" xmlns="http://www.w3.org/2000/svg" viewBox="0 0 247.29 44.19"><defs><style>.cls-1{fill:#407cca;}.cls-2{fill:#2c6aaf;}.cls-3{fill:#003469;}</style></defs><title>PoC-logo-text</title><path class="cls-1" d="M3.41,4.17v36h36v-36ZM19,32.41H14.71V29.29l-4.36-5.76a1.23,1.23,0,0,1-.29-.77V13.91a1.26,1.26,0,1,1,2.51,0V19a1.66,1.66,0,0,0-.82.42,1.69,1.69,0,0,0,0,2.39l2.38,2.45.32-.32L12,21.52a1.25,1.25,0,0,1,0-1.76,1.28,1.28,0,0,1,.53-.3,1.3,1.3,0,0,1,.63,0,1.24,1.24,0,0,1,.6.35L19,25.14ZM17.92,20.33a4.72,4.72,0,0,1-1.45-3.49,4.93,4.93,0,0,1,4.93-4.93h0a4.93,4.93,0,0,1,4.94,4.92h0a5,5,0,0,1-4.94,4.94A4.75,4.75,0,0,1,17.92,20.33Zm14.83,2.43a1.22,1.22,0,0,1-.29.77L28.1,29.29v3.14H23.83V25.14L29,19.79a1.24,1.24,0,0,1,.6-.35,1.29,1.29,0,0,1,.62,0,1.27,1.27,0,0,1,.53.3,1.25,1.25,0,0,1,0,1.76L28.39,24l.33.32,2.38-2.45a1.69,1.69,0,0,0,0-2.39,1.66,1.66,0,0,0-.83-.42V13.91a1.26,1.26,0,0,1,2.51,0Z"/><path class="cls-2" d="M55,8.69c0,2.19-1.51,3-3.63,3H49.85v3.92h-.68V5.77h2.2C53.64,5.77,55,6.66,55,8.69Zm-.72,0c0-1.74-1-2.35-2.87-2.35H49.85v4.77h1.5C53.05,11.12,54.25,10.56,54.25,8.7Z"/><path class="cls-2" d="M58.89,11.11v4.51h-.68V5.77h2.32c2.33,0,3.41.94,3.41,2.64A2.49,2.49,0,0,1,61.73,11l2.72,4.62h-.84L61,11.11ZM63.22,8.4c0-1.34-.75-2-2.74-2h-1.6v4.18h1.74C62.27,10.53,63.22,9.88,63.22,8.4Z"/><path class="cls-2" d="M74.65,10.71c0,3.23-1.56,5.07-4,5.07s-4-1.79-4-5.06,1.63-5.1,4-5.1S74.65,7.38,74.65,10.71Zm-7.22,0c0,3,1.33,4.45,3.24,4.45s3.25-1.47,3.25-4.47-1.28-4.49-3.25-4.49S67.43,7.68,67.43,10.72Z"/><path class="cls-2" d="M80.1,6.38v9.23h-.68V6.38h-3V5.77h6.66L83,6.38Z"/><path class="cls-2" d="M86.48,6.36v3.83H90v.59H86.48V15h4.29v.59h-5V5.77h4.88l-.09.59Z"/><path class="cls-2" d="M99.71,6.5,99.33,7a3,3,0,0,0-2-.75c-1.8,0-3.27,1.28-3.27,4.48,0,3,1.43,4.47,3.23,4.47a3.17,3.17,0,0,0,2.19-.84l.39.46a3.66,3.66,0,0,1-2.61,1C95,15.78,93.3,14,93.3,10.69s1.77-5.07,3.95-5.07A3.54,3.54,0,0,1,99.71,6.5Z"/><path class="cls-2" d="M104.9,6.38v9.23h-.68V6.38h-3V5.77h6.65l-.09.62Z"/><path class="cls-2" d="M110.6,15.62V5.77h.69v9.85Z"/><path class="cls-2" d="M122.76,10.71c0,3.23-1.56,5.07-4,5.07s-4-1.79-4-5.06,1.63-5.1,4-5.1S122.76,7.38,122.76,10.71Zm-7.22,0c0,3,1.33,4.45,3.24,4.45S122,13.7,122,10.71s-1.28-4.49-3.25-4.49S115.54,7.68,115.54,10.72Z"/><path class="cls-2" d="M131.75,15.62l-4.88-9.09c0,.63.09,1.48.09,3.23v5.86h-.65V5.77h.88l4.88,9.09c0-.48-.09-1.58-.09-2.88V5.77h.65v9.85Z"/><path class="cls-2" d="M154.06,10.71c0,3.23-1.56,5.07-4,5.07s-4-1.79-4-5.06,1.63-5.1,4-5.1S154.06,7.38,154.06,10.71Zm-7.22,0c0,3,1.33,4.45,3.24,4.45s3.25-1.47,3.25-4.47-1.28-4.49-3.25-4.49S146.84,7.68,146.84,10.72Z"/><path class="cls-2" d="M158.28,6.36v4h3.49V11h-3.49v4.67h-.68V5.77h4.8l-.09.59Z"/><path class="cls-2" d="M181.06,6.5l-.37.46a3,3,0,0,0-2-.75c-1.8,0-3.27,1.28-3.27,4.48,0,3,1.43,4.47,3.23,4.47a3.17,3.17,0,0,0,2.19-.84l.39.46a3.66,3.66,0,0,1-2.61,1c-2.25,0-3.92-1.77-3.92-5.08s1.77-5.07,3.95-5.07A3.54,3.54,0,0,1,181.06,6.5Z"/><path class="cls-2" d="M184.06,15.62V5.77h.69v9.85Z"/><path class="cls-2" d="M190.79,15.62l-3.23-9.85h.73l2.9,9.16,2.9-9.16h.72l-3.23,9.85Z"/><path class="cls-2" d="M197.63,15.62V5.77h.69v9.85Z"/><path class="cls-2" d="M207.33,15l-.1.63H202.5V5.77h.68V15Z"/><path class="cls-2" d="M210.1,15.62V5.77h.69v9.85Z"/><path class="cls-2" d="M215.2,12.85l-.91,2.77h-.69l3.33-9.85h.86l3.33,9.85h-.73l-.91-2.77Zm2.16-6.53-2,5.92h3.89Z"/><path class="cls-2" d="M229.39,15.62l-4.88-9.09c0,.63.09,1.48.09,3.23v5.86h-.65V5.77h.88l4.88,9.09c0-.48-.09-1.58-.09-2.88V5.77h.65v9.85Z"/><path class="cls-2" d="M239.39,6.69l-.42.46a3.13,3.13,0,0,0-2.32-.94c-1.28,0-2.13.71-2.13,1.76s.59,1.56,2.35,2.09,2.82,1.21,2.82,2.9a2.86,2.86,0,0,1-3.17,2.82,4.27,4.27,0,0,1-3.08-1.22l.42-.45a3.6,3.6,0,0,0,2.65,1.07A2.22,2.22,0,0,0,239,13c0-1.27-.62-1.79-2.41-2.33-2-.6-2.77-1.28-2.77-2.65s1.12-2.36,2.81-2.36A3.77,3.77,0,0,1,239.39,6.69Z"/><path class="cls-3" d="M56.75,21.79h1.91L66.89,40H64.69L62.58,35.2H52.75L50.61,40H48.53Zm5,11.58-4.1-9.21-4.13,9.21Z"/><path class="cls-3" d="M70.62,21.92h2V40h-2Z"/><path class="cls-3" d="M77.95,21.92h6.27c5.67,0,9.59,3.89,9.59,9v.05c0,5.08-3.92,9-9.59,9H77.95Zm6.27,16.17c4.56,0,7.48-3.09,7.48-7.09v-.05c0-4-2.91-7.14-7.48-7.14H80V38.09Z"/><path class="cls-3" d="M98.11,21.92h13v1.86h-11v6.16H110V31.8h-9.85v6.32h11.14V40H98.11Z"/><path class="cls-3" d="M115,21.92h4.28L124,29.55l4.75-7.63h4.28V40h-3.95V28.18L124,35.9h-.1l-5-7.63V40H115Z"/><path class="cls-3" d="M137.38,21.92H151v3.53h-9.67v3.66h8.51v3.53h-8.51v3.79h9.8V40H137.38Z"/><path class="cls-3" d="M154.66,21.92h4.28l4.74,7.63,4.75-7.63h4.28V40h-3.95V28.18l-5.08,7.71h-.1l-5-7.63V40h-3.89Z"/><path class="cls-3" d="M176.24,31v-.05a9.6,9.6,0,0,1,19.19-.05v.05a9.6,9.6,0,0,1-19.19.05Zm15,0v-.05a5.48,5.48,0,0,0-5.47-5.67,5.4,5.4,0,0,0-5.42,5.62v.05a5.48,5.48,0,0,0,5.47,5.67A5.4,5.4,0,0,0,191.27,31Z"/><path class="cls-3" d="M199.14,21.92h4V40h-4Z"/><path class="cls-3" d="M207.62,21.92h8.25a7.2,7.2,0,0,1,5.26,1.83,5.67,5.67,0,0,1,1.55,4.13v.05a5.6,5.6,0,0,1-3.87,5.6L223.22,40h-4.64l-3.87-5.78h-3.12V40h-4Zm8,8.77c1.93,0,3-1,3-2.55v-.05c0-1.7-1.19-2.58-3.12-2.58h-3.95v5.18Z"/><path class="cls-3" d="M226.26,21.92h13.62v3.53h-9.67v3.66h8.51v3.53h-8.51v3.79H240V40H226.26Z"/></svg>