<svg xmlns="http://www.w3.org/2000/svg" viewBox="0 0 43.8 44.19"><defs><style>.cls-1{fill:#026cb6;}</style></defs><title>PoC-logo</title><g id="Layer_1" data-name="Layer 1"><path class="cls-1" d="M9.7,18.27l8.38,8.6V38.55H18v0H11.14v-5l-7-9.26A2,2,0,0,1,3.67,23V8.81a2,2,0,1,1,4,0V17a2.66,2.66,0,0,0-1.32.68,2.72,2.72,0,0,0-.05,3.84l3.83,3.93.52-.51L6.84,21.05a2,2,0,0,1,0-2.83,2,2,0,0,1,.85-.48,2.1,2.1,0,0,1,1,0,2,2,0,0,1,1,.56m24.4,0-8.38,8.6V38.55h.07v0h6.87v-5l7-9.26A2,2,0,0,0,40.13,23V8.81a2,2,0,0,0-4,0V17a2.67,2.67,0,0,1,1.33.68,2.72,2.72,0,0,1,.05,3.84l-3.83,3.93L33.12,25,37,21.05a2,2,0,0,0,0-2.83,2,2,0,0,0-.85-.48,2.08,2.08,0,0,0-1,0,2,2,0,0,0-1,.56m-12.2,3.2a8,8,0,0,0,7.93-7.94A7.64,7.64,0,0,0,27.5,7.91,7.62,7.62,0,0,0,21.9,5.6a7.57,7.57,0,0,0-5.6,2.31A7.6,7.6,0,0,0,14,13.52a7.58,7.58,0,0,0,2.33,5.61,7.63,7.63,0,0,0,5.6,2.33"/></g></svg>